PathFileType	4	(X/Y/Z)	/Users/itak/Documents/Research/Walk-IL/dataset/trc/00282_00010.trc
DataRate	CameraRate	NumFrames	NumMarkers	Units	OrigDataRate	OrigDataStartFrame	OrigNumFrames
100.000000	100.000000	4	53	mm	100.000000	157	630
Frame#	Time	RPSI			LPSI			L3			STRN			T10			C7			CLAV			RBAK			LBAK			LSHO			LUPA			LAEL			LAOL			LWTS			LWPS			LFRA			LIFD			LHPS			LHTS			RSHO			RUPA			RAEL			RAOL			RWTS			RWPS			RFRA			RIFD			RHTS			RHPS			RBHD			LFHD			RFHD			LBHD			LHIP			RASI			LASI			LKNE			LTHI			LANK			LTIP			LTOE			LMT1			LMT5			LHEE			RKNE			RANK			RTIP			RTOE			RMT1			RMT5			RHEE			RHIP			RTHI			
		X1	Y1	Z1	X2	Y2	Z2	X3	Y3	Z3	X4	Y4	Z4	X5	Y5	Z5	X6	Y6	Z6	X7	Y7	Z7	X8	Y8	Z8	X9	Y9	Z9	X10	Y10	Z10	X11	Y11	Z11	X12	Y12	Z12	X13	Y13	Z13	X14	Y14	Z14	X15	Y15	Z15	X16	Y16	Z16	X17	Y17	Z17	X18	Y18	Z18	X19	Y19	Z19	X20	Y20	Z20	X21	Y21	Z21	X22	Y22	Z22	X23	Y23	Z23	X24	Y24	Z24	X25	Y25	Z25	X26	Y26	Z26	X27	Y27	Z27	X28	Y28	Z28	X29	Y29	Z29	X30	Y30	Z30	X31	Y31	Z31	X32	Y32	Z32	X33	Y33	Z33	X34	Y34	Z34	X35	Y35	Z35	X36	Y36	Z36	X37	Y37	Z37	X38	Y38	Z38	X39	Y39	Z39	X40	Y40	Z40	X41	Y41	Z41	X42	Y42	Z42	X43	Y43	Z43	X44	Y44	Z44	X45	Y45	Z45	X46	Y46	Z46	X47	Y47	Z47	X48	Y48	Z48	X49	Y49	Z49	X50	Y50	Z50	X51	Y51	Z51	X52	Y52	Z52	X53	Y53	Z53	

158	1.57	1141.289672851562	970.6692504882812	515.1730346679688	975.4584350585938	932.7379760742188	472.6713256835938	1067.12109375	1021.554504394531	480.685302734375	1089.43896484375	1189.861694335938	231.1531524658203	1069.682006835938	1138.257690429688	495.9339599609375	1052.816162109375	1380.75	441.3490600585938	1074.599731445312	1290.7353515625	290.0754089355469	1128.517700195312	1249.346435546875	505.6836853027344	948.9879150390625	1342.50830078125	451.6972961425781	902.6551513671875	1341.698486328125	354.7337646484375	826.6121215820312	1232.390991210938	399.6763916015625	807.16064453125	1034.136108398438	435.4463806152344	874.5037231445312	1028.281127929688	492.3597106933594	841.9899291992188	802.3404541015625	381.2897033691406	781.59521484375	796.2485961914062	422.3738403320312	792.966796875	929.4043579101562	436.8596801757812	835.1740112304688	616.2380981445312	393.1115417480469	780.8075561523438	708.0720825195312	425.3821105957031	815.508056640625	704.5914306640625	368.3233642578125	1213.81494140625	1361.527709960938	386.4798583984375	1283.313354492188	1309.457153320312	395.9722290039062	1397.996337890625	1067.981689453125	351.8962097167969	1315.01318359375	1028.430297851562	371.6515197753906	1395.941772460938	937.5505981445312	140.189208984375	1467.162475585938	920.3477783203125	182.5869598388672	1425.839721679688	1024.65673828125	302.3258361816406	1440.489868164062	798.3872680664062	26.47508430480957	1442.253051757812	870.8927612304688	49.08930969238281	1491.411743164062	850.5942993164062	95.85033416748047	1133.49951171875	1542.379638671875	401.5960998535156	1000.040893554688	1561.759887695312	236.3740234375	1092.558471679688	1565.836547851562	231.3190765380859	987.5380249023438	1526.993286132812	409.06396484375	905.267578125	876.1038208007812	381.011474609375	1236.026733398438	916.79248046875	312.1827392578125	988.5123291015625	895.769775390625	262.7303771972656	1016.954040527344	463.4602355957031	169.4626922607422	966.1631469726562	581.6983032226562	233.7560729980469	1097.646484375	28.96610069274902	71.55840301513672	1045.758056640625	238.9212493896484	125.9591217041016	1143.543212890625	107.9891891479492	-117.2119598388672	1187.542358398438	71.45994567871094	-62.18025207519531	1078.52734375	67.86027526855469	-43.36460113525391	1157.857177734375	12.35381412506104	112.2272338867188	1245.12353515625	463.3884887695312	522.45458984375	1195.686279296875	48.00444412231445	705.0805053710938	1230.862182617188	340.3359680175781	548.3893432617188	1171.675537109375	31.01419639587402	505.5969543457031	1123.497314453125	33.51334762573242	556.2742919921875	1229.548217773438	25.88472747802734	608.1171264648438	1138.905517578125	55.00571441650391	750.7730102539062	1271.016845703125	927.8521728515625	446.7541809082031	1285.699584960938	713.2388305664062	433.5060424804688	
159	1.58	1142.770141601562	968.6514892578125	504.2645568847656	976.8563842773438	930.4369506835938	461.8774108886719	1068.666137695312	1019.214965820312	469.9095764160156	1089.909790039062	1187.645263671875	221.2171936035156	1071.3095703125	1135.69775390625	485.7301330566406	1053.298461914062	1378.333862304688	431.9006042480469	1074.776489257812	1288.529418945312	280.0831909179688	1129.816040039062	1246.974853515625	495.4637145996094	949.8255615234375	1339.571655273438	442.9598693847656	902.7909545898438	1338.39990234375	346.0545349121094	827.95947265625	1228.5234375	391.7015686035156	810.734619140625	1030.279296875	428.4319458007812	878.6969604492188	1024.944213867188	484.1431274414062	845.590576171875	797.8418579101562	376.9036560058594	785.9258422851562	792.1484375	419.0379943847656	796.8865356445312	925.4003295898438	431.2933959960938	839.8221435546875	611.95751953125	391.8011779785156	785.5007934570312	704.0519409179688	423.4739074707031	819.4029541015625	699.7785034179688	365.9839782714844	1214.10986328125	1359.75048828125	376.073974609375	1283.874755859375	1307.757568359375	384.8573608398438	1398.630493164062	1066.850219726562	338.0574035644531	1315.939331054688	1026.873657226562	358.3143005371094	1394.253662109375	939.539794921875	124.7083969116211	1466.13330078125	921.6995849609375	165.7535400390625	1425.904296875	1024.387451171875	287.6389770507812	1437.695922851562	802.7918090820312	7.804524421691895	1439.619384765625	874.8317260742188	31.81243515014648	1489.458251953125	853.700439453125	77.51544952392578	1133.662353515625	1540.55322265625	391.6880493164062	998.4620361328125	1559.723266601562	227.8999786376953	1090.902709960938	1564.052734375	221.8712158203125	987.9208374023438	1524.71728515625	400.6848754882812	906.4732055664062	873.7657470703125	370.3515014648438	1237.753784179688	914.2887573242188	301.1211547851562	989.8994140625	892.9898071289062	252.058837890625	1016.957153320312	461.1627807617188	160.3144989013672	966.8980712890625	579.1857299804688	224.3124847412109	1099.32177734375	28.24381446838379	63.3264045715332	1046.837158203125	236.5401153564453	117.5773849487305	1140.0078125	104.4396896362305	-127.819709777832	1185.494384765625	68.92303466796875	-73.27359771728516	1076.982177734375	65.24500274658203	-51.75209808349609	1160.534423828125	12.32356929779053	102.6378326416016	1246.589477539062	462.4202575683594	515.2329711914062	1196.562133789062	49.81372451782227	704.4707641601562	1231.922119140625	339.6201477050781	542.8070068359375	1171.693603515625	30.9420223236084	505.51904296875	1123.649658203125	33.8112907409668	556.2161254882812	1229.839111328125	26.17131042480469	607.6228637695312	1140.005493164062	57.90027618408203	750.3883056640625	1272.38525390625	925.6843872070312	435.8719177246094	1287.144287109375	711.3843994140625	424.0705871582031	
160	1.59	1144.259155273438	966.8297729492188	493.0939636230469	978.2271118164062	928.4966430664062	450.9813537597656	1070.144165039062	1017.102478027344	458.9278259277344	1090.218627929688	1185.673461914062	211.0889892578125	1072.784423828125	1133.303955078125	475.3238525390625	1053.618286132812	1376.1171875	422.3544006347656	1074.806274414062	1286.534545898438	269.9324951171875	1130.917358398438	1244.77197265625	485.1160278320312	950.4762573242188	1336.77197265625	434.0487365722656	902.805419921875	1335.285522460938	337.2886352539062	829.1892700195312	1224.772094726562	383.5092468261719	814.3014526367188	1026.525756835938	420.9521179199219	882.8098754882812	1021.641479492188	475.4168090820312	849.2354736328125	793.4060668945312	372.3209533691406	790.3077392578125	788.2014770507812	415.4298400878906	800.7761840820312	921.50634765625	425.2867126464844	844.6010131835938	607.8193359375	390.6210327148438	790.3167724609375	700.234375	421.4599609375	823.4491577148438	695.0603637695312	363.5953369140625	1214.289672851562	1358.169067382812	365.6243591308594	1284.293823242188	1306.21435546875	373.774658203125	1398.967041015625	1065.77490234375	324.4523620605469	1316.504516601562	1025.444946289062	345.2091674804688	1392.193359375	941.263916015625	109.7058181762695	1464.713012695312	922.8087158203125	149.4425048828125	1425.62890625	1024.093505859375	273.2476501464844	1434.458740234375	806.7534790039062	-10.06371784210205	1436.576171875	878.35595703125	15.19567584991455	1487.0673828125	856.4785766601562	59.87996292114258	1133.659790039062	1538.98095703125	381.7375183105469	996.7896118164062	1557.934814453125	219.3546905517578	1089.147094726562	1562.528564453125	212.3869781494141	988.1598510742188	1522.677856445312	392.2203063964844	907.5051879882812	871.8462524414062	359.6118774414062	1239.362548828125	911.9549560546875	289.712646484375	991.1283569335938	890.5181274414062	241.246826171875	1016.914001464844	459.4286804199219	150.6205291748047	967.5687866210938	577.4078979492188	214.2392272949219	1100.762939453125	27.67704200744629	57.87477874755859	1047.872314453125	234.3207702636719	109.9466552734375	1137.344116210938	98.66192626953125	-136.1427612304688	1183.9072265625	64.62158203125	-81.51408386230469	1075.910278320312	61.61991882324219	-57.74618911743164	1162.764892578125	12.61984157562256	96.11154174804688	1248.036987304688	461.4818115234375	507.3136596679688	1197.569702148438	51.97097778320312	703.7034301757812	1233.032470703125	338.966552734375	536.6572875976562	1171.723876953125	30.87226295471191	505.4122619628906	1123.847534179688	34.18595504760742	556.1011352539062	1230.211547851562	26.49247550964355	607.02685546875	1141.286376953125	61.33470916748047	749.8358154296875	1273.71337890625	923.6528930664062	424.6421813964844	1288.476684570312	709.6011352539062	414.0294189453125	
161	1.6	1145.822265625	965.268798828125	481.6265869140625	979.5904541015625	927.0692138671875	440.0174560546875	1071.6083984375	1015.294067382812	447.7511291503906	1090.34130859375	1184.02734375	200.7621765136719	1074.154418945312	1131.1513671875	464.7162170410156	1053.796630859375	1374.174560546875	412.7181396484375	1074.67919921875	1284.824829101562	259.6371765136719	1131.849365234375	1242.814819335938	474.6468200683594	950.9628295898438	1334.19580078125	424.9977111816406	902.7002563476562	1332.440551757812	328.4586791992188	830.3034057617188	1221.215209960938	375.1028747558594	817.8164672851562	1022.959594726562	412.9993591308594	886.8461303710938	1018.449951171875	466.1891479492188	852.9139404296875	789.1367797851562	367.5162353515625	794.7110595703125	784.5119018554688	411.5122985839844	804.6307373046875	917.8239135742188	418.8349304199219	849.4617309570312	603.9505615234375	389.5191040039062	795.2230224609375	696.7297973632812	419.2934875488281	827.6203002929688	690.5484619140625	361.1123046875	1214.36474609375	1356.860961914062	355.1198120117188	1284.58056640625	1304.898803710938	362.7125854492188	1398.99365234375	1064.799560546875	311.0964660644531	1316.693237304688	1024.204223632812	332.3433532714844	1389.796508789062	942.7262573242188	95.20398712158203	1462.906494140625	923.6920776367188	133.7093048095703	1425.018310546875	1023.799682617188	259.1769104003906	1430.820434570312	810.2344360351562	-27.10379981994629	1433.159301757812	881.42822265625	-0.7265214323997498	1484.262451171875	858.8878784179688	42.98805999755859	1133.497802734375	1537.721557617188	371.744384765625	995.0240478515625	1556.4658203125	210.738525390625	1087.291625976562	1561.330322265625	202.8634643554688	988.2485961914062	1520.949584960938	383.6673278808594	908.3629760742188	870.5122680664062	348.8527526855469	1240.805419921875	909.8345947265625	277.9137573242188	992.1514282226562	888.4775390625	230.33447265625	1016.782958984375	458.2417602539062	140.4676055908203	968.0767822265625	576.3657836914062	203.692138671875	1102.0029296875	27.37967872619629	54.50234985351562	1048.8388671875	232.4154205322266	102.7364273071289	1135.684692382812	91.15582275390625	-142.7582397460938	1182.895874023438	58.96916198730469	-87.48743438720703	1075.39404296875	57.39026260375977	-61.97751998901367	1164.598510742188	13.27366256713867	91.94314575195312	1249.411254882812	460.5801086425781	498.6570129394531	1198.686279296875	54.51692199707031	702.7507934570312	1234.174194335938	338.4098815917969	529.943359375	1171.774047851562	30.80772590637207	505.2760620117188	1124.093017578125	34.64304733276367	555.9046020507812	1230.66015625	26.84067344665527	606.338623046875	1142.713623046875	65.36128234863281	749.0399780273438	1275.060302734375	921.7811889648438	413.0003051757812	1289.681518554688	707.8964233398438	403.3296508789062	
